<svg width="1600" height="1200" xmlns="http://www.w3.org/2000/svg" style="vector-effect: non-scaling-stroke;" stroke="null">
 <!-- Created with Method Draw - http://github.com/duopixel/Method-Draw/ -->

 <g stroke="null">
  <title stroke="null">background</title>
  <rect stroke="null" fill="#fff" id="canvas_background" height="1202" width="1602" y="-1" x="-1"/>
  <g style="vector-effect: non-scaling-stroke;" stroke="null" display="none" overflow="visible" y="0" x="0" height="100%" width="100%" id="canvasGrid">
   <rect fill="url(#gridpattern)" stroke-width="0" y="0" x="0" height="100%" width="100%"/>
  </g>
 </g>
 <g stroke="null">
  <title stroke="null">Layer 1</title>
  <defs style="vector-effect: non-scaling-stroke;" stroke="null">
   <linearGradient style="vector-effect: non-scaling-stroke;" stroke="null" y2="0.986959" x2="0.988602" y1="0.174339" x1="0.420392" id="svg_4">
    <stop style="vector-effect: non-scaling-stroke;" stroke="null" stop-color="white"/>
    <stop style="vector-effect: non-scaling-stroke;" stroke="null" stop-opacity="0" stop-color="white" offset="1"/>
   </linearGradient>
  </defs>
  <g stroke="null" id="svg_113">
   <path stroke="null" id="svg_6" fill="url(#svg_4)" d="m1583.046755,1355.610239l-1578.09514,0c-19.980719,-272.139422 245.311108,-443.623604 389.443302,-536.792349c18.724732,-12.102491 35.403126,-22.884811 49.146733,-32.392991c60.239567,-41.680221 104.909478,-132.694712 152.417683,-229.494389c87.526518,-178.335448 184.685759,-376.30131 406.59523,-321.549735c195.099514,48.262113 488.319538,253.615227 598.561514,560.824808l0,510.23794c-5.469042,16.26186 -11.48608,32.652606 -18.069321,49.166716z" clip-rule="evenodd" fill-rule="evenodd" opacity="0.5"/>
   <path stroke="null" id="svg_7" fill="#F0F0F5" d="m871.060881,996.567822c-229.250076,0 -415.093727,18.959281 -415.093727,42.348593c0,23.389312 185.843652,42.348593 415.093727,42.348593c229.250076,0 415.093727,-18.959281 415.093727,-42.348593c0,-23.389312 -185.843652,-42.348593 -415.093727,-42.348593z"/>
   <path stroke="null" id="svg_8" fill="#965450" d="m1246.793527,874.708825c0,0 -58.892333,169.834428 -65.202486,169.834428c-6.310153,0 -132.50957,40.336114 -21.033236,-10.614767c0,0 12.620306,-184.695102 31.550764,-193.186915c18.928638,-8.489972 54.684957,33.967254 54.684957,33.967254z"/>
   <path stroke="null" id="svg_9" fill="#76413B" d="m1202.624278,996.989466c19.139826,-50.313811 44.17107,-122.280641 44.17107,-122.280641c0,0 -35.75814,-42.457226 -54.686778,-33.967254c-12.19975,5.520047 -21.874347,84.918135 -27.134022,140.113081c12.620306,5.096561 25.029424,10.614767 37.649729,16.134814z"/>
   <path stroke="null" id="svg_10" fill="#051F38" d="m1142.25909,1043.05737c0,0 -4.837298,11.251837 41.434729,-0.63707l-2.102777,6.36886c0,0 -130.404972,30.995487 -39.331951,-5.73179z"/>
   <path stroke="null" id="svg_11" fill="#965450" d="m1211.037208,802.741995c0,0 91.07302,154.762012 87.076833,159.644988c-3.996187,4.881136 -54.47559,128.435917 -21.66498,9.340627c0,0 -132.087193,-128.437758 -126.408784,-148.604894c5.889597,-19.955393 60.996931,-20.380721 60.996931,-20.380721z"/>
   <path stroke="null" id="svg_12" fill="#051F38" d="m1271.822951,991.683004c0,0 5.469042,11.038253 26.081723,-32.481371l3.575632,5.73179c-0.211188,0 -60.365187,121.006501 -29.657354,26.749581z"/>
   <path stroke="null" id="svg_13" fill="#76413B" d="m1264.041764,894.877803c-24.399501,-43.521465 -53.004556,-92.135808 -53.004556,-92.135808c0,0 -55.107333,0.425327 -60.996931,20.380721c-3.784999,12.949463 50.481223,71.541503 88.972063,111.028804c0.209367,0.211743 15.143639,-16.5583 25.029424,-39.273717z"/>
   <path stroke="null" id="svg_14" fill="#6633CC" d="m1268.877242,570.06962c0,0 -55.739077,-62.626204 -88.34032,-23.352487c-32.601243,39.273717 -83.080645,168.772031 -75.720014,221.845865c4.418563,31.20723 34.074097,64.537414 57.841854,86.827504l-19.980937,113.788827c0,0 82.028346,22.29009 76.770493,22.29009c-3.155076,0 80.977868,-228.212884 89.390798,-300.393298c8.414751,-72.178573 -39.961874,-121.006501 -39.961874,-121.006501z"/>
   <path stroke="null" id="svg_15" fill="#352C38" d="m1226.182667,584.081481c15.564194,-0.213584 32.601243,-2.336538 47.533694,-8.491813c-2.943888,-3.608837 -4.837298,-5.520047 -4.837298,-5.520047c0,0 -55.737256,-62.626204 -88.338499,-23.352487c-5.048486,6.157117 -10.517528,14.223603 -15.98657,23.989557c18.300536,10.18944 41.436549,13.798276 61.628674,13.37479z" opacity="0.2"/>
   <path stroke="null" id="svg_16" fill="#352C38" d="m1142.679646,614.438057c-23.136014,53.285577 -42.696395,119.520617 -37.859097,153.913199c4.205555,30.993646 33.653542,64.112087 57.419478,86.402177c8.414751,-57.743227 23.767757,-137.990128 33.023619,-184.269775c-22.926646,-13.161206 -41.857105,-32.056043 -52.584001,-56.045601z" opacity="0.2"/>
   <path stroke="null" id="svg_17" fill="#965450" d="m1107.975625,444.815372l-33.653542,65.811554c0,0 -58.892333,-32.904857 -67.307084,-32.904857c-8.41293,0 -48.374805,1.060556 -29.446166,9.55237c0,0 -8.41293,5.306463 1.052299,7.429416c0,0 -8.41293,7.431257 2.102777,8.491813l24.188313,-1.060556c0,0 48.376625,44.582021 72.564938,50.94904c24.188313,6.36886 63.099708,-76.42448 63.099708,-76.42448l-32.601243,-31.844301z"/>
   <path stroke="null" id="svg_18" fill="#76413B" d="m1113.444667,491.945673c5.257854,1.91121 10.726896,3.822421 16.195938,5.73179c6.730708,-11.887066 10.936263,-21.229534 10.936263,-21.229534l-32.601243,-31.842459l-18.509903,36.088366c7.362452,4.671234 15.566015,8.280071 23.978945,11.251837z"/>
   <path stroke="null" id="svg_19" fill="#34CB79" d="m1150.040277,412.972912c0,0 -31.548944,-5.306463 -43.118771,11.677164c-11.568007,16.981786 -16.825861,44.580179 -16.825861,44.580179l45.221549,22.291931l14.723083,-78.549275z"/>
   <path stroke="null" id="svg_20" fill="#161826" d="m1132.584494,473.052677c-11.568007,-9.128884 -24.820056,-20.592464 -33.442354,-34.392581c-6.310153,14.860674 -9.255862,30.358417 -9.255862,30.358417l45.221549,22.29009l2.734521,-14.435346c-1.682222,-1.060556 -3.575632,-2.334696 -5.257854,-3.82058z" opacity="0.1"/>
   <path stroke="null" id="svg_21" fill="#23173B" d="m928.771653,469.867326c1.261666,3.397094 -0.629923,7.217673 -3.996187,8.491813l-24.818235,9.128884c-3.366264,1.27414 -7.151264,-0.63707 -8.414751,-4.034164l-9.883964,-27.810137c-1.263487,-3.397094 0.629923,-7.217673 3.996187,-8.491813l24.818235,-9.128884c3.366264,-1.272299 7.151264,0.63707 8.41293,4.034164l9.885785,27.810137z"/>
   <path stroke="null" id="svg_22" fill="#322153" d="m948.75259,449.06312l-77.822792,28.235464c-13.670784,4.881136 -20.61086,20.167136 -15.773562,33.965413l23.977125,67.297438c4.837298,13.798276 19.980937,20.804207 33.653542,15.92123l77.822792,-28.233623c13.670784,-4.882977 20.612681,-20.168978 15.775382,-33.967254l-23.978945,-67.297438c-5.046666,-13.798276 -19.980937,-21.015949 -33.653542,-15.92123zm50.060668,89.375784c1.891589,5.518206 -0.842932,11.675323 -6.310153,13.586533l-33.444174,-93.409948c5.469042,-1.909369 11.569827,0.850654 13.461417,6.36886l26.292911,73.454555z"/>
   <path stroke="null" id="svg_23" fill="#6633CC" d="m923.723166,441.631862c1.052299,2.973608 -0.420555,6.36886 -3.364444,7.431257l-35.335764,12.949463c-2.945709,1.062397 -6.310153,-0.423486 -7.362452,-3.397094l-2.943888,-8.278229c-1.052299,-2.971766 0.420555,-6.36886 3.364444,-7.431257l35.335764,-12.949463c2.945709,-1.060556 6.310153,0.425327 7.362452,3.397094l2.943888,8.278229z"/>
   <path stroke="null" id="svg_24" fill="#965450" d="m973.361458,481.967976c0,0 13.252049,-4.669393 15.566015,-1.91121c2.102777,2.548281 -11.147451,6.36886 -10.517528,6.582444c0.420555,0.211743 14.302528,-2.971766 15.564194,0c1.263487,2.971766 -14.723083,8.278229 -14.723083,8.278229c0,0 15.143639,-4.245907 16.195938,-1.060556c1.052299,3.183509 -15.775382,7.854743 -15.775382,7.854743l-0.841111,-7.00593l-1.050478,-8.066486l-4.418563,-4.671234z"/>
   <path stroke="null" id="svg_25" fill="#965450" d="m992.082549,478.35914c0,0 -10.30634,-7.00593 -10.30634,-9.340627c-0.211188,-2.548281 27.343389,9.128884 27.343389,9.128884l-17.037049,0.211743z"/>
   <path stroke="null" id="svg_26" fill="#76413B" d="m1195.261826,407.66645c-2.102777,3.82058 8.203563,-85.129694 8.203563,-85.129694l-47.744882,32.481187c0,0 4.205555,56.894414 -1.052299,57.106157c-2.102777,0 -10.30634,3.185351 -19.351014,6.580603c2.104598,10.614767 6.310153,12.949463 9.885785,23.140744c26.713466,-0.211743 55.739077,-0.848813 72.144382,-25.47544c-9.465229,-3.183509 -19.351014,-14.01186 -22.085535,-8.703556z"/>
   <path stroke="null" id="svg_27" fill="#34CB79" d="m1150.040277,412.972912l-2.102777,-7.429416l52.584001,-11.677164l2.102777,12.73772c0,0 63.099708,21.229534 71.512639,68.995064c8.41293,47.76553 4.207375,78.549275 -5.257854,94.470504c0,0 -73.617237,10.614767 -105.166181,-5.306463c-31.550764,-15.923071 -64.152007,-134.806618 -47.324326,-145.421385c16.825861,-10.614767 33.651721,-6.36886 33.651721,-6.36886z"/>
   <path stroke="null" id="svg_28" fill="#161826" d="m1218.820215,545.23125c-25.240612,-1.485883 -56.159632,-4.45765 -77.192869,-20.167136c-3.996187,-2.971766 -7.571819,-6.157117 -10.936263,-9.765954c9.465229,23.56423 21.242604,43.519623 33.021798,49.464998c31.550764,15.92123 105.166181,5.306463 105.166181,5.306463c4.207375,-7.00593 7.362452,-16.983627 8.833486,-30.144833c-18.928638,5.73179 -38.700208,6.580603 -58.892333,5.306463z" opacity="0.1"/>
   <path stroke="null" id="svg_29" fill="#965450" d="m1216.295062,508.503973l53.634479,-4.245907c0,0 -13.670784,95.53106 -29.446166,128.437758c-15.773562,32.904857 -88.338499,162.403171 -59.944632,90.222756c0,0 -36.806798,56.259185 -5.257854,-1.060556c0,0 -34.70402,45.642577 -4.207375,-3.183509c0,0 -35.756319,41.39667 2.104598,-16.983627c0,0 -28.395688,13.798276 3.155076,-9.554211l30.498465,-80.670387l9.463409,-102.962318z"/>
   <path stroke="null" id="svg_30" fill="#76413B" d="m1268.667874,511.901066c0.842932,-4.882977 1.263487,-7.854743 1.263487,-7.854743l-53.6363,4.245907l-0.420555,5.520047c17.457604,0 35.126396,-0.848813 52.793368,-1.91121z"/>
   <path stroke="null" id="svg_31" fill="#051F38" d="m1160.13725,265.430047c0,0 26.713466,-15.709671 65.834229,10.189992c25.870535,17.195738 24.608868,72.18023 -31.339576,108.268596c-66.464152,42.884395 -34.494653,-118.458588 -34.494653,-118.458588z"/>
   <path stroke="null" id="svg_32" fill="#965450" d="m1197.157056,294.726435c0,0 -30.07791,-23.564598 -55.739077,-12.10065c-32.390055,14.860489 -29.025611,49.463156 -29.657354,78.972761c-0.841111,39.273717 29.868543,46.704974 39.122584,47.12846c13.670784,0.848813 69.409861,-2.546439 46.273848,-114.00057z"/>
   <path stroke="null" id="svg_33" fill="#965450" d="m1200.100945,331.453713c0,0 1.261666,-5.945374 11.358639,-1.27414c12.829673,6.155276 5.889597,37.150763 -8.414751,36.30195c-14.511895,-0.63707 -2.943888,-35.02781 -2.943888,-35.02781z"/>
   <path stroke="null" id="svg_34" fill="#051F38" d="m1200.099124,331.453713c0,0 1.684043,21.227692 -3.155076,21.441277c-5.046666,0.211743 -10.30634,-38.425456 3.575632,-38.425456c13.881972,0.424591 -0.420555,16.984179 -0.420555,16.984179z"/>
   <path stroke="null" id="svg_35" fill="#34CB79" d="m1200.100945,331.453713c0,0 -10.30634,-47.129565 -71.512639,-39.274821c0,0 8.833486,-17.620329 28.1845,-25.899663c26.29109,-11.251469 65.623041,33.966886 54.684957,63.900344c0,0 -5.046666,0.63707 -11.356819,1.27414z"/>
   <path stroke="null" id="svg_36" fill="#051F38" d="m1225.971479,287.932984c0,0 -3.366264,-56.257528 10.095152,-56.257528c13.461417,0 -1.052299,47.341308 -1.052299,47.341308c0,0 11.149272,-67.721292 43.539327,-57.5313c32.391875,10.189992 -23.556569,57.5313 -23.556569,57.5313c0,0 25.659346,-23.776709 34.70402,-15.709671c8.833486,7.854743 -36.808618,23.776709 -36.808618,23.776709c0,0 34.705841,-10.189992 39.122584,6.793451c4.416743,16.770963 -67.095896,14.435899 -66.043597,-5.944269z"/>
   <path stroke="null" id="svg_37" fill="#051F38" d="m1113.442847,320.627019c0,0 0,-0.424591 0.420555,-1.273772c0.420555,-0.849181 0.841111,-1.910658 1.89341,-2.972135c1.052299,-1.061477 2.313965,-2.335249 3.996187,-3.18443c0.420555,-0.212295 0.841111,-0.424591 1.472854,-0.636886c0.420555,-0.212295 1.052299,-0.424591 1.472854,-0.424591c0.629923,0 1.050478,-0.212295 1.682222,-0.212295l1.682222,0c1.052299,0 2.102777,0.424591 3.155076,0.849181c1.052299,0.424591 1.89341,0.849181 2.734521,1.486067c0.841111,0.636886 1.472854,1.273772 2.102777,1.910658c0.631744,0.636886 1.052299,1.273772 1.261666,1.910658c0.211188,0.212295 0.420555,0.636886 0.420555,0.849181c0.211188,0.212295 0.211188,0.636886 0.420555,0.849181c0.211188,0.636886 0.422376,1.061477 0.422376,1.486067c0.209367,0.848997 0.209367,1.273588 0.209367,1.273588c0,0 -0.420555,-0.212295 -1.261666,-0.424407c-0.420555,-0.212295 -0.841111,-0.424775 -1.261666,-0.636886c-0.420555,-0.212295 -1.052299,-0.424591 -1.684043,-0.849181c-0.629923,-0.212295 -1.050478,-0.636886 -1.682222,-0.849181c-0.629923,-0.212295 -1.261666,-0.424591 -1.89341,-0.636886c-0.629923,-0.212295 -1.261666,-0.424591 -1.891589,-0.636886c-0.631744,0 -1.261666,-0.212295 -1.89341,-0.212295l-0.841111,0c-0.211188,0 -0.631744,0 -1.052299,0c-0.629923,0 -1.261666,0.212295 -1.89341,0.212295c-0.629923,0.212295 -1.261666,0.212295 -1.891589,0.424591c-0.631744,0.212295 -1.263487,0.212295 -1.89341,0.424591c-1.261666,0.424591 -2.313965,0.636886 -2.945709,0.849181c-0.629923,0.424591 -1.261666,0.424591 -1.261666,0.424591z"/>
   <path stroke="null" id="svg_38" fill="white" d="m1129.638785,379.005658c0,0 34.494653,1.062397 36.806798,0.63707c2.104598,-0.423486 -19.349194,16.560141 -36.806798,-0.63707z"/>
   <path stroke="null" id="svg_39" fill="#1F2733" d="m1131.95275,340.157269c0,0 0,0.423486 -0.211188,1.27414c-0.209367,0.848813 -0.420555,1.909369 -0.841111,3.395252c-0.209367,0.63707 -0.420555,1.485883 -0.841111,2.122953c-0.211188,0.425327 -0.420555,0.850654 -0.631744,1.062397c-0.209367,0.423486 -0.629923,0.848813 -0.841111,1.060556c-0.629923,0.63707 -1.261666,1.485883 -2.313965,1.91121c-0.209367,0.211743 -0.420555,0.211743 -0.841111,0.425327l-0.629923,0.211743c-0.420555,0.211743 -1.052299,0.211743 -1.682222,0.211743c-1.052299,0 -2.313965,-0.211743 -3.155076,-1.060556c-0.842932,-0.63707 -1.472854,-1.485883 -1.89341,-2.548281c-0.420555,-0.848813 -0.631744,-1.697626 -0.841111,-2.546439c-0.211188,-0.850654 -0.211188,-1.699467 -0.211188,-2.336538c0,-1.485883 0,-2.546439 0.211188,-3.395252c0.209367,-0.850654 0.420555,-1.27414 0.420555,-1.27414c0,0 0,1.909369 0.629923,4.669393c0.211188,1.27414 0.631744,2.971766 1.472854,4.245907c0.420555,0.63707 0.841111,1.27414 1.472854,1.699467c0.629923,0.423486 1.261666,0.63707 1.89341,0.63707c0.420555,0 0.629923,0 1.050478,-0.213584l0.631744,-0.211743c0,0 0.209367,-0.211743 0.420555,-0.211743c0.629923,-0.213584 1.261666,-0.850654 1.89341,-1.27414c0.629923,-0.63707 1.050478,-1.27414 1.471034,-1.91121c0.420555,-0.63707 0.841111,-1.27414 1.052299,-1.91121c0.631744,-1.272299 1.052299,-2.334696 1.472854,-2.971766c0.629923,-0.63707 0.841111,-1.060556 0.841111,-1.060556z"/>
   <path stroke="null" id="svg_40" fill="#1F2733" d="m1166.65677,342.917292c0,0 0,0.423486 -0.209367,1.272299c-0.211188,0.850654 -0.420555,1.91121 -0.841111,3.397094c-0.211188,0.63707 -0.420555,1.485883 -0.842932,2.122953c-0.209367,0.425327 -0.420555,0.848813 -0.629923,1.062397c-0.211188,0.423486 -0.631744,0.848813 -0.841111,1.060556c-0.631744,0.63707 -1.261666,1.485883 -2.313965,1.91121c-0.211188,0.211743 -0.420555,0.211743 -0.841111,0.425327l-0.631744,0.211743c-0.420555,0.211743 -1.050478,0.211743 -1.682222,0.211743c-1.052299,0 -2.313965,-0.211743 -3.155076,-1.060556c-0.841111,-0.63707 -1.472854,-1.485883 -1.89341,-2.548281c-0.420555,-0.848813 -0.629923,-1.697626 -0.841111,-2.548281c-0.209367,-0.848813 -0.209367,-1.697626 -0.209367,-2.334696c0,-1.485883 0,-2.546439 0.209367,-3.397094c0.211188,-0.848813 0.420555,-1.272299 0.420555,-1.272299c0,0 0,1.909369 0.631744,4.669393c0.209367,1.27414 0.629923,2.971766 1.472854,4.245907c0.420555,0.63707 0.841111,1.27414 1.471034,1.699467c0.631744,0.423486 1.261666,0.635229 1.89341,0.635229c0.420555,0 0.631744,0 1.052299,-0.211743l0.629923,-0.211743c0,0 0.211188,-0.211743 0.420555,-0.211743c0.631744,-0.213584 1.261666,-0.850654 1.89341,-1.27414c0.631744,-0.63707 1.052299,-1.27414 1.472854,-1.91121c0.420555,-0.63707 0.841111,-1.27414 1.050478,-1.91121c0.631744,-1.272299 1.052299,-2.334696 1.472854,-2.971766c0.631744,-0.63707 0.841111,-1.060556 0.841111,-1.060556z"/>
   <path stroke="null" id="svg_41" fill="#76413B" d="m1204.938243,360.53799c0.629923,-0.850654 1.050478,-1.487724 1.471034,-2.336538c0.420555,-0.848813 0.631744,-1.697626 0.841111,-2.546439c0,-0.425327 0,-0.850654 0,-1.27414c0,-0.211743 -0.209367,-0.425327 -0.209367,-0.425327c0,-0.211743 -0.211188,-0.423486 -0.420555,-0.423486c-0.211188,-0.213584 -0.211188,-0.213584 -0.420555,-0.425327l-0.420555,-0.425327c-0.211188,-0.211743 -0.420555,-0.211743 -0.631744,-0.211743l-0.629923,-0.211743l-0.422376,-0.211743l0,-0.425327c-0.629923,-2.334696 -0.841111,-4.45765 -1.050478,-6.794187c-0.211188,-1.060556 -0.211188,-2.334696 0,-3.395252c0,-1.27414 0.209367,-2.336538 0.629923,-3.608837c0.211188,-0.63707 0.631744,-1.27414 1.263487,-1.699467c0.629923,-0.423486 1.471034,-0.848813 2.102777,-0.63707c0.841111,0 1.261666,0.213584 1.89341,0.425327c0.629923,0.211743 1.261666,0.425327 1.682222,0.848813c0.420555,0.425327 1.052299,0.848813 1.261666,1.27414c0.420555,0.425327 0.631744,1.060556 0.841111,1.485883c0.420555,1.060556 0.631744,2.334696 0.420555,3.397094c-0.209367,-1.062397 -0.420555,-2.122953 -1.050478,-3.185351c-0.211188,-0.423486 -0.631744,-0.848813 -1.052299,-1.27414c-0.420555,-0.423486 -0.841111,-0.635229 -1.261666,-0.848813c-0.420555,-0.211743 -0.841111,-0.423486 -1.472854,-0.423486c-0.420555,0 -1.052299,-0.213584 -1.472854,-0.213584c-0.841111,0 -1.261666,0.63707 -1.471034,1.485883c-0.631744,1.91121 -0.420555,4.034164 -0.420555,6.157117c0.209367,2.122953 0.420555,4.45765 0.841111,6.580603l-0.420555,-0.635229l0.629923,0.423486c0.211188,0.211743 0.420555,0.211743 0.631744,0.425327l0.629923,0.423486c0.211188,0.213584 0.420555,0.425327 0.631744,0.63707c0.211188,0.213584 0.420555,0.425327 0.420555,0.848813c0.211188,0.213584 0.211188,0.63707 0.211188,0.850654c0.209367,0.635229 0,1.060556 0,1.697626c-0.211188,1.060556 -0.842932,1.91121 -1.472854,2.760024c-0.631744,0.63707 -1.472854,1.485883 -2.102777,1.91121z"/>
   <path stroke="null" id="svg_42" fill="#76413B" d="m1135.107826,369.453289c-1.052299,0.211743 -1.89341,0.211743 -2.734521,0.211743c-0.841111,0 -1.682222,-0.211743 -2.313965,-0.423486c-0.841111,-0.213584 -1.472854,-0.63707 -2.102777,-0.848813c-0.420555,-0.213584 -0.631744,-0.425327 -1.052299,-0.63707c-0.420555,-0.213584 -0.629923,-0.425327 -1.050478,-0.63707l-1.263487,-1.062397l0.211188,-0.848813c2.102777,-6.157117 4.205555,-12.10065 6.310153,-18.044183c2.102777,-5.945374 4.416743,-12.10065 6.730708,-18.046024c-1.472854,6.157117 -3.155076,12.525977 -4.627931,18.683094c-1.682222,6.155276 -3.364444,12.312393 -5.048486,18.46951l-0.841111,-1.91121c0.420555,0 0.841111,0.211743 1.261666,0.211743c0.420555,0 0.842932,0.211743 1.052299,0.425327c0.631744,0.211743 1.472854,0.63707 2.102777,1.060556c0.631744,0.425327 1.263487,1.062397 1.89341,1.699467c0.420555,0.211743 1.052299,0.848813 1.472854,1.697626z"/>
   <path stroke="null" id="svg_43" fill="#051F38" d="m1147.516944,318.078554c0,0 0.211188,-0.636886 0.841111,-1.273772c0.420555,-0.424591 0.631744,-0.849181 1.261666,-1.486067c0.631744,-0.424591 1.052299,-1.061477 1.89341,-1.486067c0.631744,-0.424591 1.472854,-1.061477 2.523333,-1.486067c0.842932,-0.424591 1.89341,-0.849181 2.945709,-1.273772c1.052299,-0.212295 2.313965,-0.636886 3.575632,-0.636886c0.631744,0 1.261666,0 1.89341,0l1.891589,0.212295c1.263487,0 2.525154,0.636886 3.575632,0.849181c1.052299,0.424591 2.104598,1.061477 3.155076,1.486067c1.052299,0.636886 1.89341,1.273772 2.525154,1.910658c0.841111,0.636886 1.471034,1.486067 1.89341,2.122953c0.629923,0.636886 1.050478,1.273772 1.471034,1.910658c0.420555,0.636886 0.631744,1.273772 0.841111,1.698363c0.420555,0.849181 0.631744,1.486067 0.631744,1.486067c0,0 -0.631744,-0.212295 -1.472854,-0.636886c-0.420555,-0.212295 -1.050478,-0.424591 -1.682222,-0.849181c-0.631744,-0.424591 -1.261666,-0.636886 -2.102777,-0.849181c-0.631744,-0.212295 -1.472854,-0.636886 -2.313965,-1.061477c-0.841111,-0.212295 -1.682222,-0.636886 -2.523333,-0.849181c-0.842932,-0.212295 -1.684043,-0.424591 -2.525154,-0.636886c-0.841111,0 -1.682222,-0.424591 -2.734521,-0.424591l-1.261666,-0.212295l-1.261666,0c-0.841111,0 -1.89341,0 -2.734521,0c-0.841111,0 -1.682222,0 -2.523333,0.212295c-0.841111,0 -1.684043,0.212295 -2.525154,0.212295c-1.471034,0.212295 -2.943888,0.424591 -3.784999,0.636886c-0.841111,0.424591 -1.472854,0.424591 -1.472854,0.424591z"/>
   <path stroke="null" id="svg_44" fill="#091E1D" d="m1118.491333,1044.117926c0,7.643 -6.098965,14.01186 -13.670784,14.223603c-7.571819,0 -13.881972,-6.155276 -14.09316,-13.798276l-0.629923,-45.005507c0,-7.643 6.098965,-14.01186 13.670784,-14.223603c7.571819,0 13.881972,6.155276 14.09134,13.798276l0.631744,45.005507z"/>
   <path stroke="null" id="svg_45" fill="#091E1D" d="m924.775465,1046.456305c0,7.641159 -6.098965,14.010019 -13.670784,14.223603c-7.571819,0 -13.881972,-6.157117 -14.09316,-13.800118l-0.629923,-45.005507c0,-7.643 6.098965,-14.01186 13.670784,-14.223603c7.571819,0 13.881972,6.157117 14.09316,13.798276l0.629923,45.007348z"/>
   <path stroke="null" id="svg_46" fill="#34CB79" d="m1102.927139,1012.061883c0.209367,17.408954 -13.672605,31.632558 -30.919021,31.844301l-129.563861,1.485883c-17.248237,0.213584 -31.339576,-13.798276 -31.550764,-31.20723l-13.881972,-297.633275c-0.209367,-17.407113 13.672605,-31.630716 30.919021,-31.844301l150.387729,-1.909369c17.246416,-0.213584 31.339576,13.798276 31.548944,31.205389l-6.940076,298.058602z"/>
   <path stroke="null" id="svg_47" fill="#161826" d="m1109.026104,743.936371l0.631744,-29.507763c-0.211188,-17.407113 -14.302528,-31.418973 -31.550764,-31.20723l-150.387729,1.91121c-17.246416,0.211743 -31.128388,14.435346 -30.9172,31.844301l1.471034,29.507763l210.752917,-2.548281z" opacity="0.1"/>
   <path stroke="null" id="svg_48" fill="#34CB79" d="m1134.687271,706.999192c0,4.881136 -3.78682,8.703556 -8.624118,8.915299l-245.668125,2.971766c-4.837298,0 -8.622298,-3.82058 -8.833486,-8.703556l-0.420555,-31.418973c0,-4.882977 3.784999,-8.703556 8.624118,-8.917141l245.666304,-2.971766c4.839119,0 8.624118,3.822421 8.835306,8.703556l0.420555,31.420815z"/>
   <path stroke="null" id="svg_49" fill="white" d="m1004.280479,794.250182l28.605055,-17.407113l-6.940076,18.044183l-21.66498,-0.63707z"/>
   <path stroke="null" id="svg_50" fill="white" d="m993.555404,766.865372c0,0 2.313965,0 5.889597,5.518206c3.575632,5.520047 11.568007,20.380721 11.568007,20.380721l14.511895,-6.580603l3.366264,-5.73179c0,0 -6.310153,-12.73772 -11.358639,-13.586533l-23.977125,0z"/>
   <path stroke="null" id="svg_51" fill="white" d="m985.561208,770.685952c0,0 4.416743,-4.882977 7.992375,-2.334696c3.575632,2.548281 9.885785,13.163047 9.885785,13.163047l-10.30634,18.255926l-18.508083,-10.401183l10.936263,-18.683094z"/>
   <path stroke="null" id="svg_52" fill="white" d="m1017.323161,816.965599l1.471034,33.541927l-12.409118,-14.647089l10.938084,-18.894837z"/>
   <path stroke="null" id="svg_53" fill="white" d="m1046.348772,820.362692c0,0 -1.052299,2.122953 -7.57364,2.760024c-6.51952,0.63707 -23.345381,0.63707 -23.345381,0.63707l-1.263487,16.132973l3.366264,5.73179c0,0 14.09134,0.63707 17.246416,-3.608837l11.569827,-21.65302z"/>
   <path stroke="null" id="svg_54" fill="white" d="m1046.558139,811.445552c0,0 2.313965,6.157117 -1.682222,8.280071c-3.78682,1.91121 -16.195938,2.334696 -16.195938,2.334696l-11.147451,-17.83244l17.87816,-11.675323l11.147451,18.892996z"/>
   <path stroke="null" id="svg_55" fill="white" d="m992.078908,816.542113l-29.446166,-15.711328l18.930459,-3.395252l10.515708,19.10658z"/>
   <path stroke="null" id="svg_56" fill="white" d="m974.624945,840.106343c0,0 -1.261666,-1.91121 1.472854,-7.854743c2.7327,-5.945374 11.147451,-20.592464 11.147451,-20.592464l-13.040861,-9.128884l-6.521341,0.211743c0,0 -7.571819,12.10065 -5.678409,16.771884l12.620306,20.592464z"/>
   <path stroke="null" id="svg_57" fill="white" d="m981.985576,844.775735c0,0 -6.51952,-1.27414 -6.098965,-5.520047c0.211188,-4.45765 6.098965,-15.284159 6.098965,-15.284159l20.823869,-0.63707l0.841111,21.441277l-21.66498,0z"/>
   <path stroke="null" id="svg_58" fill="#051F38" d="m552.907924,960.050446c0,0 -4.62611,74.940438 -8.622298,76.426321c-15.354827,5.306463 -131.247903,35.02781 -21.66498,-14.860674l-2.943888,-54.559717l33.231166,-7.00593z"/>
   <path stroke="null" id="svg_59" fill="#041523" d="m548.070625,1018.219c2.734521,-22.715417 4.837298,-58.168554 4.837298,-58.168554l-33.231166,7.00593l2.734521,48.616184c8.201742,2.334696 17.666972,2.546439 25.659346,2.546439z"/>
   <path stroke="null" id="svg_60" fill="white" d="m476.137431,1047.728604c-3.364444,8.278229 57.210111,-7.431257 68.148195,-11.251837c0.209367,-0.211743 0.629923,-0.63707 1.050478,-1.699467c-13.670784,3.822421 -55.105513,13.37479 -69.198673,12.951304z"/>
   <path stroke="null" id="svg_61" fill="#051F38" d="m623.790639,956.018124c0,0 6.100785,74.938597 10.30634,76.212737c15.564194,5.09472 131.877826,32.481371 21.244424,-15.286001l1.891589,-54.557876l-33.442354,-6.36886z"/>
   <path stroke="null" id="svg_62" fill="#041523" d="m629.891425,1013.973093c-3.155076,-22.501833 -6.100785,-57.95497 -6.100785,-57.95497l33.442354,6.36886l-1.682222,48.614343c-8.203563,2.548281 -17.666972,2.760024 -25.659346,2.971766z"/>
   <path stroke="null" id="svg_63" fill="white" d="m702.454542,1042.208557c3.575632,8.278229 -57.419478,-6.36886 -68.357562,-9.977697c-0.420555,0 -0.629923,-0.63707 -1.050478,-1.699467c13.670784,3.822421 55.316701,12.525977 69.408041,11.677164z"/>
   <path stroke="null" id="svg_64" fill="#34CB79" d="m644.192132,551.388367c0,0 30.287277,246.895978 24.188313,446.663497c0,0 -36.176875,10.18944 -45.642104,2.760024c-8.203563,-47.342044 -7.151264,-139.476011 -19.351014,-207.835846c-11.568007,-64.535573 -16.194117,-117.397664 -16.194117,-117.397664l-3.78682,-4.245907c0,0 -24.820056,312.070463 -30.287277,335.848277c-31.339576,7.429416 -41.225361,-1.27414 -41.225361,-1.27414c0,0 -14.302528,-390.406153 -5.469042,-453.457684c11.358639,-82.368013 137.767423,-1.060556 137.767423,-1.060556z"/>
   <path stroke="null" id="svg_65" fill="#161826" d="m649.659353,602.54915c-3.155076,-31.844301 -5.68023,-50.94904 -5.68023,-50.94904c0,0 -126.197596,-81.309298 -137.767423,1.060556c-1.050478,7.643 -1.682222,20.167136 -2.312145,36.090207c9.463409,5.306463 127.670451,22.29009 145.759798,13.798276z" opacity="0.1"/>
   <path stroke="null" id="svg_66" fill="#161826" d="m584.879244,668.786031c1.471034,16.770043 9.042853,70.906274 18.508083,124.19001c12.19975,68.571578 11.147451,160.493802 19.351014,207.835846c9.465229,7.429416 45.642104,-2.760024 45.642104,-2.760024c3.575632,-122.917711 -6.310153,-263.667862 -14.723083,-353.678876c-19.980937,12.735879 -45.432737,18.892996 -68.778118,24.413043z" opacity="0.1"/>
   <path stroke="null" id="svg_67" fill="#FFB39F" d="m595.60614,335.486035c0.209367,-25.89911 2.102777,-60.078291 2.102777,-60.078291l-50.479403,-14.011308c0,0 1.682222,46.279831 3.155076,74.514927c-22.926646,7.854743 -49.008369,22.715417 -49.008369,22.715417l95.280396,24.413043l33.86473,-33.1166c0,0 -17.037049,-8.705398 -34.915208,-14.437188z"/>
   <path stroke="null" id="svg_68" fill="#E09B8D" d="m595.60614,335.486035c0.209367,-25.89911 2.102777,-60.078291 2.102777,-60.078291l-50.479403,-14.011308c0,0 1.682222,46.279831 3.155076,74.514927c-22.926646,7.854743 -49.008369,22.715417 -49.008369,22.715417l95.280396,24.413043l45.012181,-39.061974c0,0 -27.975133,-10.614767 -46.06266,-8.491813z"/>
   <path stroke="null" id="svg_69" fill="#FFB39F" d="m542.812772,212.356949c0,0 13.250229,-43.307696 48.165437,-36.514246c34.915208,6.793267 39.963695,52.860802 44.380438,83.855553c4.416743,31.206862 -5.469042,59.229478 -32.812431,62.626204c-23.767757,2.972135 -65.202486,-1.698363 -59.733444,-109.967511z"/>
   <path stroke="null" id="svg_70" fill="#FFB39F" d="m544.494993,248.658899c0,0 -2.102777,-5.73179 -10.726896,0.636886c-10.938084,8.067223 0.209367,37.788018 13.461417,34.603772c13.250229,-3.18443 -2.734521,-35.240658 -2.734521,-35.240658z"/>
   <path stroke="null" id="svg_71" fill="#051F38" d="m532.295243,187.518763c0.841111,-0.212295 17.248237,-1.486067 6.310153,-0.424591c10.095152,11.039173 9.044674,13.799013 22.926646,16.346373c7.360631,22.927712 -7.151264,36.726725 -7.151264,36.726725l3.996187,27.598026l-10.517528,1.061477c0,0 0.211188,-19.106396 -7.781187,-20.804759c-7.992375,-1.698363 -10.30634,8.067223 -10.30634,8.067223c-16.616493,-21.22935 -33.444174,-62.838683 2.523333,-68.570473z"/>
   <path stroke="null" id="svg_72" fill="#051F38" d="m627.575639,172.021388c6.730708,-16.771166 -4.62611,-31.631637 -4.62611,-31.631637c1.891589,6.156491 1.050478,11.888373 -0.842932,16.558815c-1.261666,-4.670442 -3.575632,-9.765457 -7.781187,-14.860471c0,0 1.261666,16.983461 -21.66498,14.860471c-22.926646,-2.122935 -63.099708,1.061458 -64.78193,36.938873c-1.89341,35.877544 32.391875,9.765401 32.391875,9.765401c0,0 68.357562,19.318692 78.243347,-36.30195l-10.938084,4.670497z"/>
   <path stroke="null" id="svg_73" fill="#051F38" d="m595.185584,234.012547c0,0 -0.631744,0 -1.472854,-0.212295c-1.052299,-0.212295 -2.313965,-0.424591 -3.784999,-0.636886c-0.842932,-0.212295 -1.472854,-0.212295 -2.313965,-0.212295c-0.841111,-0.212295 -1.682222,-0.212295 -2.525154,-0.212295c-0.841111,0 -1.682222,0 -2.734521,0c-0.420555,0 -0.841111,0 -1.261666,0l-1.261666,0.212295c-0.841111,0 -1.682222,0.212295 -2.734521,0.424591c-0.841111,0.212295 -1.682222,0.424591 -2.523333,0.636886c-0.841111,0.212295 -1.682222,0.636886 -2.523333,0.849181c-0.842932,0.212295 -1.472854,0.636886 -2.313965,0.849181c-0.631744,0.212295 -1.472854,0.424591 -1.89341,0.849181c-0.631744,0.212295 -1.052299,0.424591 -1.472854,0.636886c-0.841111,0.424591 -1.471034,0.636886 -1.471034,0.636886c0,0 0.209367,-0.636886 0.629923,-1.486067c0.211188,-0.424591 0.420555,-1.061477 0.841111,-1.698363c0.420555,-0.636886 0.841111,-1.273772 1.472854,-1.910658c0.631744,-0.636886 1.052299,-1.486067 1.89341,-2.122953c0.841111,-0.636886 1.682222,-1.273772 2.734521,-1.910658c1.050478,-0.424591 2.102777,-1.061477 3.155076,-1.486067c1.261666,-0.424591 2.312145,-0.636886 3.575632,-0.849181l1.891589,-0.212295c0.631744,0 1.263487,0 1.89341,0.212295c0.631744,0 1.261666,0.212295 1.682222,0.212295c0.631744,0.212295 1.052299,0.212295 1.684043,0.424591c1.050478,0.424591 2.102777,0.636886 2.943888,1.273772c0.841111,0.424591 1.682222,1.061477 2.523333,1.486067c0.631744,0.424591 1.263487,1.061477 1.89341,1.486067c0.420555,0.424591 0.841111,1.061477 1.261666,1.273772c-0.209367,0.849181 0.211188,1.486067 0.211188,1.486067z"/>
   <path stroke="null" id="svg_74" fill="#051F38" d="m630.730715,232.949229c0,0 -0.420555,-0.212295 -1.261666,-0.424591c-0.841111,-0.212295 -1.89341,-0.636886 -2.945709,-1.061477c-0.629923,-0.212295 -1.261666,-0.424407 -1.891589,-0.636702c-0.631744,-0.212295 -1.263487,-0.424775 -1.89341,-0.424775c-0.631744,0 -1.261666,-0.212111 -1.89341,-0.424407c-0.209367,0 -0.631744,0 -0.841111,-0.212295l-0.841111,0c-0.631744,-0.212295 -1.261666,0.212295 -1.89341,0c-0.631744,0.212295 -1.261666,0.212295 -1.89341,0.424591c-0.629923,0.212295 -1.261666,0.424591 -1.891589,0.636886c-0.631744,0.212295 -1.263487,0.424407 -1.684043,0.636702c-0.629923,0.212295 -1.261666,0.424591 -1.682222,0.636886c-0.420555,0.212295 -0.841111,0.424591 -1.261666,0.424591c-0.841111,0.212295 -1.261666,0.424591 -1.261666,0.424591c0,0 0,-0.424591 0.420555,-1.273772c0.209367,-0.424591 0.209367,-0.849181 0.629923,-1.485883c0.211188,-0.636886 0.631744,-1.061477 1.052299,-1.698363c0.420555,-0.636886 0.841111,-1.273772 1.472854,-1.910658c0.629923,-0.636886 1.471034,-1.061477 2.102777,-1.698363c0.841111,-0.424591 1.89341,-0.849181 2.734521,-1.273772c1.052299,-0.212295 2.102777,-0.424591 3.155076,-0.424591c0.629923,0 1.050478,0 1.682222,0c0.631744,0 1.052299,0.212295 1.472854,0.424591c0.420555,0 1.050478,0.212295 1.471034,0.424591c0.422376,0.212295 0.842932,0.424591 1.263487,0.636886c1.682222,1.061477 2.943888,2.122953 3.784999,3.396725c0.841111,1.273772 1.261666,2.335249 1.682222,3.184246c0.211188,1.273772 0.211188,1.698363 0.211188,1.698363z"/>
   <path stroke="null" id="svg_75" fill="#DD9078" d="m604.860181,235.284477c1.261666,2.759839 2.525154,5.731974 3.78682,8.491813c0.629923,1.485883 1.050478,2.759655 1.682222,4.245723l1.682222,4.245907l1.682222,4.245907c0.631744,1.486067 1.052299,2.759655 1.684043,4.245723l0.841111,2.122953c0.209367,0.636886 0.629923,1.486067 0.841111,2.122953c0.631744,1.273772 1.261666,2.547544 1.89341,4.033611l0.629923,1.698363l-1.261666,0.636886c-1.89341,0.849181 -3.784999,1.910474 -5.889597,2.759655c-1.891589,0.849181 -3.996187,1.698363 -6.098965,2.335249c1.682222,-1.486067 3.364444,-2.759839 5.048486,-4.033427c1.682222,-1.273772 3.575632,-2.547544 5.257854,-3.821316l-0.631744,2.335249c-0.841111,-1.273772 -1.682222,-2.759839 -2.523333,-4.033611c-0.841111,-1.273772 -1.472854,-2.759839 -2.102777,-4.245907l-1.052299,-2.122953l-0.841111,-2.122769c-0.420555,-1.486067 -1.052299,-2.972135 -1.472854,-4.458202l-1.261666,-4.458202c-0.420555,-1.486067 -0.631744,-2.972135 -1.052299,-4.458202c-0.209367,-3.396541 -0.629923,-6.580971 -0.841111,-9.765401z"/>
   <path stroke="null" id="svg_76" fill="#DD9078" d="m543.86325,277.742992c-0.841111,-0.424591 -1.682222,-1.061477 -2.312145,-1.910658c-0.631744,-0.636886 -1.472854,-1.486067 -1.89341,-2.54736c-0.211188,-0.424591 -0.420555,-1.061477 -0.420555,-1.698363c0,-0.212295 0,-0.636886 0,-0.849181c0,-0.212295 0.209367,-0.636886 0.209367,-0.849181c0.211188,-0.636886 0.631744,-1.061477 1.052299,-1.486067c0.209367,-0.212295 0.420555,-0.424591 0.629923,-0.636886l0.631744,-0.424591l-0.420555,0.636886c0,-2.335249 0,-4.670497 -0.211188,-6.793451c-0.209367,-2.335065 -0.420555,-4.670313 -1.261666,-6.580971c-0.209367,-0.424591 -0.420555,-0.849181 -0.841111,-1.061477c-0.209367,-0.212295 -0.629923,-0.424591 -1.050478,-0.424591c-0.211188,0 -0.422376,0 -0.631744,0.212295c-0.211188,0 -0.631744,0.212295 -0.841111,0.212295c-0.420555,0.212295 -0.841111,0.424591 -1.261666,0.849181c-0.420555,0.424591 -0.842932,0.636886 -1.052299,1.061477c-0.211188,0.424591 -0.631744,0.849181 -0.841111,1.486067c-0.420555,1.061477 -0.631744,2.122953 -0.631744,3.396541c-0.420555,-1.061477 -0.420555,-2.335065 -0.209367,-3.608837c0,-0.636886 0.209367,-1.273772 0.629923,-1.698363c0.211188,-0.636886 0.631744,-1.061477 1.052299,-1.486067l0.631744,-0.636886l0.841111,-0.636886c0.209367,-0.212295 0.629923,-0.212295 0.841111,-0.424591c0.209367,-0.212295 0.629923,-0.212295 1.050478,-0.424591c0.842932,-0.212295 1.684043,0 2.313965,0.636886c0.631744,0.424591 1.052299,1.061477 1.261666,1.698363c0.631744,1.273772 0.842932,2.335249 1.263487,3.609021c0.209367,1.273772 0.420555,2.335065 0.420555,3.608837c0.209367,2.335249 0.209367,4.670497 0,7.218041l0,0.424591l-0.420555,0.212295c-0.420555,0.212295 -0.841111,0.424591 -1.052299,0.849181c-0.211188,0.212295 -0.631744,0.636886 -0.841111,0.849181c-0.211188,0.212295 -0.211188,0.424591 -0.211188,0.636886c0,0.212295 -0.209367,0.424591 -0.209367,0.636886c0,0.424591 0,0.849181 0,1.273588c0.209367,0.849181 0.629923,1.698363 1.261666,2.547544c1.261666,0.849181 1.89341,1.486067 2.523333,2.122953z"/>
   <path stroke="null" id="svg_77" fill="#1F2733" d="m576.885048,254.178578c0,0 0.211188,0.424591 0.422376,1.273588c0.209367,0.424591 0.209367,0.849181 0.420555,1.273772c0.209367,0.424591 0.420555,1.061477 0.841111,1.698363c0.209367,0.636886 0.841111,1.061477 1.050478,1.698363c0.211188,0.212295 0.420555,0.424591 0.841111,0.849181c0.211188,0.212295 0.422376,0.424591 0.842932,0.636886c0.629923,0.424591 1.261666,0.636886 1.891589,0.849181c0.420555,0 0.631744,0.212295 1.052299,0.212295c0.420555,0 0.631744,0 1.052299,-0.212295l1.050478,-0.424591l1.052299,-0.636886c0.631744,-0.424591 1.052299,-1.061477 1.472854,-1.698363c0.420555,-0.636886 0.629923,-1.273772 1.050478,-1.910658c0.211188,-0.636886 0.420555,-1.273772 0.420555,-2.122953c0,-0.636886 0,-1.273772 0.211188,-1.698179c0,-0.636886 0,-1.061477 0,-1.486067c0,-0.849181 0,-1.273772 0,-1.273772c0,0 0.209367,0.424591 0.420555,1.273772c0.211188,0.424591 0.211188,0.849181 0.420555,1.486067c0,0.636702 0.211188,1.273588 0.211188,1.910474c0,0.636886 0,1.486067 -0.211188,2.335249c-0.209367,0.849181 -0.420555,1.698363 -0.841111,2.547544c-0.420555,0.849181 -1.052299,1.698363 -1.89341,2.335249l-1.261666,0.849181c-0.420555,0.212295 -1.052299,0.424591 -1.472854,0.636886c-0.420555,0 -1.050478,0.212295 -1.682222,0.212295c-0.420555,0 -1.052299,-0.212295 -1.472854,-0.212295c-1.050478,-0.212295 -1.891589,-0.849181 -2.734521,-1.486067c-0.841111,-0.636886 -1.261666,-1.486067 -1.682222,-2.122953c-0.420555,-0.849181 -0.841111,-1.486067 -1.050478,-2.122953c-0.211188,-0.636886 -0.422376,-1.273772 -0.422376,-1.910658c0,-0.636886 0,-1.061477 0,-1.486067c0,-0.848997 0,-1.273588 0,-1.273588z"/>
   <path stroke="null" id="svg_78" fill="#1F2733" d="m614.957154,247.809718c0,0 0.209367,0.424591 0.420555,1.273772c0.209367,0.424591 0.209367,0.849181 0.420555,1.273772c0.209367,0.424591 0.420555,1.061477 0.841111,1.698363c0.209367,0.636886 0.841111,1.061477 1.052299,1.698363c0.209367,0.212295 0.420555,0.424591 0.841111,0.849181c0.209367,0.212295 0.420555,0.424591 0.841111,0.636886c0.629923,0.424591 1.261666,0.636886 1.89341,0.849181c0.420555,0 0.629923,0.212295 1.050478,0.212295c0.420555,0 0.631744,0 1.052299,-0.212295l1.050478,-0.424591l1.052299,-0.636886c0.631744,-0.424591 1.052299,-1.061477 1.472854,-1.698363c0.420555,-0.636886 0.629923,-1.273772 1.050478,-1.910658c0.211188,-0.636886 0.422376,-1.273772 0.422376,-2.122953c0,-0.636886 0,-1.273772 0.209367,-1.698363c0,-0.636886 0,-1.061477 0,-1.486067c0,-0.849181 0,-1.273588 0,-1.273588c0,0 0.211188,0.424407 0.420555,1.273588c0.211188,0.424591 0.211188,0.849181 0.420555,1.486067c0,0.636886 0.211188,1.273772 0.211188,1.910658c0,0.636886 0,1.486067 -0.211188,2.335249c-0.209367,0.849181 -0.420555,1.698363 -0.841111,2.547544c-0.420555,0.849181 -1.052299,1.698363 -1.89341,2.335249l-1.261666,0.849181c-0.420555,0.212295 -1.052299,0.424591 -1.472854,0.636702c-0.420555,0 -1.050478,0.212479 -1.682222,0.212479c-0.420555,0 -1.050478,-0.212479 -1.472854,-0.212479c-1.050478,-0.212111 -1.891589,-0.848997 -2.7327,-1.485883c-0.842932,-0.636886 -1.263487,-1.486067 -1.684043,-2.122953c-0.420555,-0.849181 -0.841111,-1.486067 -1.050478,-2.122953c-0.211188,-0.636886 -0.420555,-1.273772 -0.420555,-1.910658c0,-0.636886 0,-1.061477 0,-1.486067c0,-0.849181 0,-1.273772 0,-1.273772z"/>
   <path stroke="null" id="svg_79" fill="#DD9078" d="m580.198516,284.197102c0,0 -0.211188,0 0,0.212295c0.209367,0.212295 0.629923,0.424591 1.052299,0.636886c0.841111,0.636886 2.312145,1.273772 3.996187,2.122953c1.682222,0.849181 3.784999,1.698363 5.887777,2.335065c1.052299,0.424591 2.313965,0.636886 3.366264,0.849181c1.052299,0.212295 2.313965,0.424591 3.575632,0.636886c2.313965,0.212295 4.627931,0.424591 6.940076,0.212295c2.313965,-0.212295 4.207375,-0.636886 6.100785,-1.273772c1.682222,-0.636886 3.155076,-1.061293 4.205555,-1.485883c1.052299,-0.424591 1.684043,-0.636886 1.684043,-0.636886c0,0 -0.420555,0.636886 -1.263487,1.273588c-0.841111,0.849181 -2.102777,1.910658 -3.784999,2.972135c-1.682222,1.061477 -3.996187,2.122953 -6.521341,2.547544c-2.523333,0.636886 -5.257854,0.636886 -7.992375,0.424591c-1.261666,-0.212295 -2.734521,-0.424591 -3.996187,-0.849181c-1.261666,-0.424591 -2.523333,-0.849181 -3.575632,-1.486067c-2.313965,-1.061477 -4.205555,-2.335249 -5.678409,-3.609021c-1.472854,-1.273588 -2.734521,-2.54736 -3.366264,-3.608837c-0.420555,-0.424591 -0.629923,-0.849181 -0.629923,-1.273772c-0.211188,0 -0.211188,0.212295 0,0z"/>
   <path stroke="null" id="svg_80" fill="#6633CC" d="m613.063744,334.848965c0,0 53.845667,-5.73179 60.785743,35.878464c6.941896,41.821997 6.310153,53.071993 6.310153,53.071993l-52.58218,-7.854743l-14.513716,-81.095714z"/>
   <path stroke="null" id="svg_81" fill="#6633CC" d="m658.492839,368.390892c-3.155076,-26.537838 -29.866722,-32.269628 -45.430916,-33.543768c-6.941896,9.765954 -16.616493,16.771884 -29.866722,17.197211c-15.145459,0.423486 -29.027432,-4.882977 -36.388063,-16.560141c-23.556569,2.760024 -46.903771,9.554211 -52.163445,25.687183c-11.147451,33.967254 -1.471034,220.785309 -1.471034,220.785309c0,0 94.228097,16.346557 171.630333,1.485883c-0.209367,0.211743 -2.102777,-179.600382 -6.310153,-215.051678z"/>
   <path stroke="null" id="svg_82" fill="#352C38" d="m489.178293,452.034886c0.420555,61.565648 3.996187,130.135384 3.996187,130.135384c0,0 94.228097,16.346557 171.630333,1.485883c0,0 -1.472854,-136.504244 -4.627931,-195.096284c-56.998923,21.441277 -113.999666,42.67081 -170.998589,63.475017z" opacity="0.2"/>
   <path stroke="null" id="svg_83" fill="#E1EDFF" d="m547.227694,501.286299c0,0 -2.102777,-6.155276 7.571819,-10.18944c9.676417,-4.034164 109.373556,-30.358417 115.683709,-29.507763c6.308332,0.848813 83.501201,10.18944 84.762867,14.435346c1.261666,4.245907 -92.336507,34.816067 -92.336507,34.816067l-115.681888,-9.554211z"/>
   <path stroke="null" id="svg_84" fill="#C0D5FF" d="m668.169257,518.906997c0,0 -109.162368,-0.423486 -117.575298,-10.401183c-8.41293,-9.977697 -8.624118,-17.197211 39.122584,-8.705398c47.744882,8.491813 75.297638,7.217673 75.297638,7.217673c0,0 87.499209,-41.183086 90.443097,-31.205389c2.734521,10.18944 11.988562,7.641159 -87.288021,43.094296z"/>
   <path stroke="null" id="svg_85" fill="#B1C5E8" d="m755.24791,476.024443c-2.734521,-9.977697 -90.443097,31.20723 -90.443097,31.20723c0,0 -0.211188,0 -0.841111,0c1.891589,3.82058 3.364444,7.429416 5.046666,11.46358c98.435472,-35.241394 89.181431,-32.693114 86.237542,-42.67081z"/>
   <path stroke="null" id="svg_86" fill="#E1EDFF" d="m544.072617,478.570883c0,0 -2.104598,-6.155276 7.571819,-10.18944c9.674597,-4.034164 109.371735,-30.358417 115.681888,-29.507763c6.310153,0.848813 83.501201,10.18944 84.764688,14.435346c1.261666,4.245907 -92.336507,34.816067 -92.336507,34.816067l-115.681888,-9.554211z"/>
   <path stroke="null" id="svg_87" fill="#C0D5FF" d="m665.01418,496.405164c0,0 -109.162368,-0.425327 -117.575298,-10.403024c-8.41293,-9.977697 -8.624118,-17.19537 39.120763,-8.703556c47.746702,8.491813 75.299459,7.217673 75.299459,7.217673c0,0 87.497388,-41.184927 90.443097,-31.20723c2.523333,9.977697 11.988562,7.429416 -87.288021,43.096137z"/>
   <path stroke="null" id="svg_88" fill="#B1C5E8" d="m752.092834,453.520769c-2.734521,-9.977697 -90.443097,31.20723 -90.443097,31.20723c0,0 -0.211188,0 -0.841111,0c1.891589,3.822421 3.364444,7.431257 5.046666,11.46358c98.226105,-35.453137 88.970243,-32.904857 86.237542,-42.67081z"/>
   <path stroke="null" id="svg_89" fill="#E1EDFF" d="m543.652062,460.101372c0,0 -1.89341,-5.306463 7.360631,-8.915299c9.255862,-3.608837 105.797924,-26.749581 111.896889,-25.900768c6.100785,0.850654 80.768501,9.128884 82.030167,12.73772c1.261666,3.608837 -89.390798,30.783744 -89.390798,30.783744l-111.896889,-8.705398z"/>
   <path stroke="null" id="svg_90" fill="#C0D5FF" d="m660.597437,475.8127c0,0 -105.586736,-0.425327 -113.788478,-9.128884c-8.203563,-8.705398 -8.203563,-15.074258 37.859097,-7.643c46.06266,7.429416 72.774305,6.36886 72.774305,6.36886c0,0 84.764688,-36.30195 87.499209,-27.386651c2.734521,8.705398 11.777374,6.36886 -84.344132,37.789675z"/>
   <path stroke="null" id="svg_91" fill="#B1C5E8" d="m744.94157,438.023026c-2.734521,-8.703556 -87.499209,27.386651 -87.499209,27.386651c0,0 -0.209367,0 -0.841111,0c1.682222,3.183509 3.366264,6.580603 4.837298,9.977697c95.280396,-30.995487 86.237542,-28.65895 83.503021,-37.364348z"/>
   <path stroke="null" id="svg_92" fill="white" d="m546.59595,435.264843c0,0 -1.682222,-5.308304 7.783007,-8.705398c9.465229,-3.183509 106.639035,-22.715417 112.738,-21.65302c6.098965,0.848813 80.346124,12.10065 81.398423,15.709487c1.052299,3.608837 -90.443097,27.173067 -90.443097,27.173067l-111.476333,-12.524136z"/>
   <path stroke="null" id="svg_93" fill="#C0D5FF" d="m662.911403,455.430138c0,0 -105.586736,-4.45765 -113.367923,-13.37479c-7.783007,-9.128884 -7.783007,-15.284159 38.068464,-6.157117c45.853292,9.128884 72.564938,9.128884 72.564938,9.128884c0,0 86.026354,-32.904857 88.34032,-24.2013c2.523333,8.703556 11.568007,6.794187 -85.605799,34.604324z"/>
   <path stroke="null" id="svg_94" fill="#B1C5E8" d="m748.517202,420.827656c-2.313965,-8.915299 -88.34032,24.2013 -88.34032,24.2013c0,0 -0.209367,0 -0.841111,0c1.682222,3.397094 3.155076,6.794187 4.416743,10.191281c96.121507,-27.598394 87.078653,-25.689025 84.764688,-34.392581z"/>
   <path stroke="null" id="svg_95" fill="#FFB39F" d="m491.701625,439.297166l51.952257,-12.73772c0,0 11.147451,76.426321 14.09134,80.672228c2.945709,4.245907 89.813174,8.491813 89.813174,8.491813l25.238791,1.485883c0,0 -106.639035,45.21725 -137.346868,26.961324c-31.128388,-18.683094 -43.748694,-104.873528 -43.748694,-104.873528z"/>
   <path stroke="null" id="svg_96" fill="#E09B8D" d="m496.750112,448.426049c15.98475,-4.882977 31.548944,-10.82651 47.954249,-14.435346c-0.629923,-4.671234 -1.050478,-7.431257 -1.050478,-7.431257l-51.952257,12.73772c0,0 0.631744,3.822421 1.682222,10.191281c1.261666,-0.425327 2.313965,-0.850654 3.366264,-1.062397z"/>
   <path stroke="null" id="svg_97" fill="#FFB39F" d="m663.122591,524.215301c0,0 39.541319,-10.614767 39.541319,-18.683094c0,-8.066486 -14.302528,-37.150763 -4.205555,1.699467c0,0 -21.033236,-52.648507 -4.207375,2.546439c0,0 -16.405305,-42.882553 -5.257854,1.062397c0,0 -16.827681,-29.721347 -4.627931,2.122953l-15.143639,5.73179l-36.388063,-0.425327l-19.349194,19.10658l49.638292,-13.161206z"/>
   <path stroke="null" id="svg_98" fill="#FFB39F" d="m755.668466,485.36507c0,0 -21.033236,-52.648507 -4.207375,2.548281c0,0 -16.405305,-42.884395 -5.257854,1.060556c0,0 -16.827681,-29.721347 -6.100785,2.334696l-11.568007,5.520047c4.207375,0.425327 9.676417,0.211743 14.09316,-1.27414c13.461417,-2.760024 17.246416,-7.429416 17.246416,-11.675323c0,-8.066486 -14.302528,-37.150763 -4.205555,1.485883z"/>
   <path stroke="null" id="svg_99" fill="#091E1D" d="m809.302944,1044.117926c0,7.643 -6.098965,14.01186 -13.670784,14.223603c-7.57364,0 -13.881972,-6.155276 -14.09316,-13.798276l-0.631744,-45.005507c0,-7.643 6.100785,-14.01186 13.672605,-14.223603c7.571819,0 13.881972,6.155276 14.09134,13.798276l0.631744,45.005507z"/>
   <path stroke="null" id="svg_100" fill="#091E1D" d="m615.587077,1046.456305c0,7.641159 -6.098965,14.010019 -13.670784,14.223603c-7.571819,0 -13.881972,-6.157117 -14.09316,-13.800118l-0.629923,-45.005507c0,-7.643 6.098965,-14.01186 13.670784,-14.223603c7.571819,0 13.881972,6.157117 14.09316,13.798276l0.629923,45.007348z"/>
   <path stroke="null" id="svg_101" fill="#322153" d="m793.73875,1012.061883c0.211188,17.408954 -13.670784,31.632558 -30.919021,31.844301l-129.563861,1.485883c-17.246416,0.213584 -31.339576,-13.798276 -31.548944,-31.20723l-13.881972,-297.633275c-0.211188,-17.407113 13.670784,-31.630716 30.9172,-31.844301l150.387729,-1.909369c17.248237,-0.213584 31.339576,13.798276 31.550764,31.205389l-6.941896,298.058602z"/>
   <path stroke="null" id="svg_102" fill="#1C0C3B" d="m799.837715,743.936371l0.631744,-29.507763c-0.209367,-17.407113 -14.302528,-31.418973 -31.548944,-31.20723l-150.387729,1.91121c-17.248237,0.211743 -31.130209,14.435346 -30.919021,31.844301l1.472854,29.507763l210.751096,-2.548281z"/>
   <path stroke="null" id="svg_103" fill="#322153" d="m825.498882,706.999192c0,4.881136 -3.784999,8.703556 -8.624118,8.915299l-245.666304,2.971766c-4.839119,0 -8.624118,-3.82058 -8.835306,-8.703556l-0.420555,-31.418973c0,-4.882977 3.78682,-8.703556 8.624118,-8.917141l245.668125,-2.971766c4.837298,0 8.624118,3.822421 8.833486,8.703556l0.420555,31.420815z"/>
   <path stroke="null" id="svg_104" fill="white" d="m695.093911,794.250182l28.605055,-17.407113l-6.941896,18.044183l-21.663159,-0.63707z"/>
   <path stroke="null" id="svg_105" fill="white" d="m684.367015,766.865372c0,0 2.312145,0 5.887777,5.518206c3.575632,5.520047 11.569827,20.380721 11.569827,20.380721l14.511895,-6.580603l3.366264,-5.73179c0,0 -6.310153,-12.73772 -11.358639,-13.586533l-23.977125,0z"/>
   <path stroke="null" id="svg_106" fill="white" d="m676.37464,770.685952c0,0 4.416743,-4.882977 7.992375,-2.334696c3.575632,2.548281 9.885785,13.163047 9.885785,13.163047l-10.30634,18.255926l-18.509903,-10.401183l10.938084,-18.683094z"/>
   <path stroke="null" id="svg_107" fill="white" d="m708.134772,816.965599l1.471034,33.541927l-12.409118,-14.647089l10.938084,-18.894837z"/>
   <path stroke="null" id="svg_108" fill="white" d="m737.158562,820.362692c0,0 -1.050478,2.122953 -7.571819,2.760024c-6.51952,0.63707 -23.345381,0.63707 -23.345381,0.63707l-1.263487,16.132973l3.366264,5.733631c0,0 14.09134,0.635229 17.246416,-3.610678l11.568007,-21.65302z"/>
   <path stroke="null" id="svg_109" fill="white" d="m737.36975,811.445552c0,0 2.313965,6.157117 -1.682222,8.280071c-3.78682,1.91121 -16.195938,2.334696 -16.195938,2.334696l-11.147451,-17.83244l17.87816,-11.675323l11.147451,18.892996z"/>
   <path stroke="null" id="svg_110" fill="white" d="m683.103528,816.542113l-29.447987,-15.709487l18.721091,-3.397094l10.726896,19.10658z"/>
   <path stroke="null" id="svg_111" fill="white" d="m665.436556,840.106343c0,0 -1.261666,-1.91121 1.472854,-7.854743c2.734521,-5.945374 11.147451,-20.592464 11.147451,-20.592464l-13.040861,-9.128884l-6.51952,0.211743c0,0 -7.571819,12.10065 -5.68023,16.771884l12.620306,20.592464z"/>
   <path stroke="null" id="svg_112" fill="white" d="m673.008376,844.775735c0,0 -6.51952,-1.27414 -6.098965,-5.520047c0.209367,-4.45765 6.098965,-15.284159 6.098965,-15.284159l20.823869,-0.63707l0.841111,21.441277l-21.66498,0z"/>
  </g>
 </g>
</svg>